<svg width="24" height="18" viewBox="0 0 24 18" fill="none" xmlns="http://www.w3.org/2000/svg">
<path d="M22.0124 0.533691H1.69326C1.24418 0.533691 0.813493 0.712088 0.495945 1.02964C0.178397 1.34718 0 1.77787 0 2.22695V15.773C0 16.2221 0.178397 16.6528 0.495945 16.9704C0.813493 17.2879 1.24418 17.4663 1.69326 17.4663H22.0124C22.4615 17.4663 22.8922 17.2879 23.2097 16.9704C23.5273 16.6528 23.7057 16.2221 23.7057 15.773V2.22695C23.7057 1.77787 23.5273 1.34718 23.2097 1.02964C22.8922 0.712088 22.4615 0.533691 22.0124 0.533691ZM19.9572 10.5567C20.0226 10.6471 20.0695 10.7494 20.0954 10.8579C20.1212 10.9664 20.1255 11.0789 20.1078 11.189C20.0902 11.2991 20.051 11.4047 19.9926 11.4996C19.9341 11.5946 19.8576 11.6772 19.7672 11.7426C19.6769 11.8079 19.5746 11.8549 19.4661 11.8807C19.3576 11.9066 19.2451 11.9108 19.135 11.8932C19.0249 11.8755 18.9193 11.8364 18.8243 11.7779C18.7294 11.7195 18.6468 11.6429 18.5814 11.5526L17.7792 10.4403L16.9718 11.5526C16.8397 11.735 16.6406 11.8575 16.4182 11.8932C16.1958 11.9288 15.9684 11.8746 15.786 11.7426C15.6035 11.6105 15.481 11.4114 15.4454 11.189C15.4098 10.9666 15.4639 10.7392 15.596 10.5567L16.4045 9.44554L15.0965 9.02222C14.9908 8.98748 14.893 8.93226 14.8086 8.85971C14.7243 8.78717 14.655 8.69872 14.6049 8.59941C14.5036 8.39886 14.4861 8.16628 14.5562 7.95282C14.591 7.84713 14.6462 7.74932 14.7187 7.66497C14.7913 7.58062 14.8797 7.51138 14.979 7.46122C15.1796 7.3599 15.4122 7.3424 15.6256 7.41257L16.9326 7.83588V6.46011C16.9326 6.23557 17.0218 6.02022 17.1806 5.86145C17.3394 5.70268 17.5547 5.61348 17.7792 5.61348C18.0038 5.61348 18.2191 5.70268 18.3779 5.86145C18.5367 6.02022 18.6259 6.23557 18.6259 6.46011V7.83588L19.9329 7.41257C20.0386 7.37782 20.1501 7.36424 20.261 7.37258C20.3719 7.38093 20.4802 7.41105 20.5795 7.46122C20.6788 7.51138 20.7672 7.58062 20.8398 7.66497C20.9123 7.74932 20.9675 7.84713 21.0023 7.95282C21.037 8.05852 21.0506 8.17002 21.0422 8.28096C21.0339 8.3919 21.0038 8.50011 20.9536 8.59941C20.9035 8.69872 20.8342 8.78717 20.7499 8.85971C20.6655 8.93226 20.5677 8.98748 20.462 9.02222L19.154 9.44554L19.9572 10.5567ZM12.3375 10.5567C12.4029 10.6471 12.4499 10.7494 12.4757 10.8579C12.5016 10.9664 12.5058 11.0789 12.4881 11.189C12.4705 11.2991 12.4313 11.4047 12.3729 11.4996C12.3145 11.5946 12.2379 11.6772 12.1476 11.7426C12.0572 11.8079 11.9549 11.8549 11.8464 11.8807C11.7379 11.9066 11.6254 11.9108 11.5153 11.8932C11.4052 11.8755 11.2996 11.8364 11.2047 11.7779C11.1097 11.7195 11.0271 11.6429 10.9618 11.5526L10.1596 10.4403L9.3521 11.5526C9.22004 11.735 9.02092 11.8575 8.79853 11.8932C8.57615 11.9288 8.34872 11.8746 8.16628 11.7426C7.98384 11.6105 7.86134 11.4114 7.82571 11.189C7.79009 10.9666 7.84426 10.7392 7.97632 10.5567L8.78485 9.44554L7.47681 9.02222C7.37112 8.98748 7.2733 8.93226 7.18895 8.85971C7.1046 8.78717 7.03537 8.69872 6.9852 8.59941C6.88388 8.39886 6.86638 8.16628 6.93655 7.95282C6.9713 7.84713 7.02652 7.74932 7.09906 7.66497C7.17161 7.58062 7.26006 7.51138 7.35936 7.46122C7.55991 7.3599 7.7925 7.3424 8.00595 7.41257L9.31294 7.83588V6.46011C9.31294 6.23557 9.40214 6.02022 9.56091 5.86145C9.71969 5.70268 9.93503 5.61348 10.1596 5.61348C10.3841 5.61348 10.5995 5.70268 10.7582 5.86145C10.917 6.02022 11.0062 6.23557 11.0062 6.46011V7.83588L12.3132 7.41257C12.4189 7.37782 12.5304 7.36424 12.6413 7.37258C12.7523 7.38093 12.8605 7.41105 12.9598 7.46122C13.0591 7.51138 13.1475 7.58062 13.2201 7.66497C13.2926 7.74932 13.3478 7.84713 13.3826 7.95282C13.4173 8.05852 13.4309 8.17002 13.4226 8.28096C13.4142 8.3919 13.3841 8.50011 13.3339 8.59941C13.2838 8.69872 13.2145 8.78717 13.1302 8.85971C13.0458 8.93226 12.948 8.98748 12.8423 9.02222L11.5343 9.44554L12.3375 10.5567ZM5.07979 4.76685V13.2332C5.07979 13.4577 4.99059 13.673 4.83181 13.8318C4.67304 13.9906 4.4577 14.0798 4.23315 14.0798C4.00861 14.0798 3.79327 13.9906 3.6345 13.8318C3.47572 13.673 3.38652 13.4577 3.38652 13.2332V4.76685C3.38652 4.54231 3.47572 4.32696 3.6345 4.16819C3.79327 4.00941 4.00861 3.92021 4.23315 3.92021C4.4577 3.92021 4.67304 4.00941 4.83181 4.16819C4.99059 4.32696 5.07979 4.54231 5.07979 4.76685Z" fill="#001E50"/>
</svg>
