<svg width="134" height="81" viewBox="0 0 134 81" fill="none" xmlns="http://www.w3.org/2000/svg">
<path d="M115.214 54.3521C115.451 54.1568 115.687 53.9584 115.924 53.7571C117.049 53.7071 118.138 53.6355 119.185 53.5444C118.356 54.304 117.524 55.0309 116.695 55.722C116.585 55.7278 116.474 55.7334 116.363 55.7388L115.214 54.3521ZM115.214 54.3521C114.319 55.0938 113.224 55.4645 112.128 55.4639C111.035 55.4634 109.941 55.0927 109.047 54.3521M115.214 54.3521L116.361 55.7389C114.994 55.8054 113.578 55.8403 112.128 55.8403C110.68 55.8403 109.266 55.8055 107.9 55.7391L109.047 54.3521M109.047 54.3521C108.811 54.1568 108.575 53.9586 108.338 53.7573C107.213 53.7075 106.124 53.6359 105.077 53.5448C105.906 54.3045 106.737 55.0312 107.566 55.7223C107.677 55.7281 107.787 55.7337 107.898 55.739L109.047 54.3521ZM97.8165 19.1775C97.8098 27.0827 104.226 33.4963 112.134 33.4963C120.042 33.4963 126.451 27.0879 126.451 19.1792C126.451 11.2704 120.042 4.86202 112.134 4.86202C104.225 4.86202 97.8175 11.2695 97.8165 19.1775ZM97.8165 19.1775L99.8165 19.1792H97.8165C97.8165 19.1786 97.8165 19.178 97.8165 19.1775ZM21.1486 37.0346C30.8132 37.0346 38.8465 44.4312 39.8491 53.8406H2.44841C3.45654 44.4299 11.4906 37.0346 21.1486 37.0346ZM100.253 48.6866C100.597 48.6284 100.951 48.5724 101.313 48.5188L101.021 46.5403L99.5161 47.8577C99.7603 48.1366 100.006 48.4129 100.253 48.6866ZM93.0839 51.0027C93.1484 50.9454 93.2296 50.882 93.3293 50.8134C93.0734 50.6395 92.9913 50.5352 92.9772 50.515C92.9885 50.5342 93.0374 50.6298 93.0374 50.8139C93.0374 50.9895 92.9859 51.0915 92.9683 51.12C92.9806 51.104 93.014 51.0649 93.0839 51.0027ZM130.927 50.8134C131.028 50.8827 131.11 50.9468 131.175 51.0046C131.244 51.0659 131.277 51.1046 131.29 51.1205C131.272 51.0919 131.22 50.9897 131.219 50.8139C131.219 50.8122 131.219 50.8106 131.219 50.809C131.219 50.8085 131.219 50.808 131.219 50.8075C131.22 50.6271 131.269 50.5334 131.28 50.5148C131.266 50.5348 131.184 50.6393 130.927 50.8134ZM122.948 48.5188C123.311 48.5724 123.664 48.6284 124.008 48.6867C124.255 48.413 124.501 48.1366 124.745 47.8577L123.241 46.5403L122.948 48.5188ZM76.4017 37.686L80.3682 34.1863H75.0785H52.4948C52.4549 34.1863 52.4193 34.1722 52.3887 34.1415C52.3585 34.1112 52.3462 34.0781 52.3464 34.042V34.0323C52.3464 33.9497 52.4123 33.8839 52.4948 33.8839H75.0785H80.3681L76.4018 30.3842L75.8111 29.863L75.8008 29.854C75.7447 29.8052 75.7371 29.7176 75.7891 29.6582L75.7939 29.6528C75.8427 29.5967 75.9303 29.5891 75.9897 29.6411L75.9904 29.6418L80.8831 33.9264C80.9033 33.9442 80.913 33.9597 80.9191 33.9737C80.9262 33.9899 80.9312 34.0111 80.931 34.0357C80.9307 34.0852 80.912 34.1213 80.8809 34.148L80.8738 34.1541L80.8667 34.1603L75.9908 38.4281L75.9848 38.4333C75.9383 38.4744 75.8493 38.4807 75.7891 38.412L75.7849 38.4072C75.7438 38.3606 75.7375 38.2717 75.8062 38.2115L75.811 38.2072L76.4017 37.686ZM105.764 73.1693H107.2L107.659 71.8093C108.29 69.9402 110.058 68.6004 112.134 68.6004C114.743 68.6004 116.857 70.7116 116.857 73.3237C116.857 75.9311 114.741 78.0469 112.134 78.0469C110.058 78.0469 108.29 76.7071 107.659 74.8381L107.2 73.4779H105.764H73.0106H71.5751L71.1158 74.838C70.4845 76.7071 68.7168 78.0469 66.6406 78.0469C64.5645 78.0469 62.7967 76.7071 62.1656 74.8381L61.7063 73.4779H60.2707H27.5173H26.0818L25.6224 74.838C24.9912 76.7071 23.2234 78.0469 21.1473 78.0469C18.5399 78.0469 16.4241 75.931 16.4241 73.3237C16.4241 70.7162 18.54 68.6004 21.1473 68.6004C23.2235 68.6004 24.9913 69.9401 25.6224 71.8092L26.0817 73.1693H27.5173H60.2707H61.7062L62.1655 71.8093C62.7968 69.9402 64.5645 68.6004 66.6406 68.6004C68.7168 68.6004 70.4846 69.9401 71.1157 71.8092L71.575 73.1693H73.0106H105.764ZM95.007 19.1676C95.007 9.7101 102.676 2.04688 112.128 2.04688C121.585 2.04688 129.248 9.7156 129.248 19.1676C129.248 26.371 125.508 33.3733 121.232 38.983C117.732 43.5748 114.011 47.0518 112.127 48.6984C110.243 47.0522 106.523 43.5752 103.023 38.9833C98.7466 33.3736 95.007 26.371 95.007 19.1676ZM30.394 21.0954C30.394 26.1993 26.2565 30.3411 21.1482 30.3411C16.0443 30.3411 11.9025 26.2037 11.9025 21.0954C11.9025 15.9915 16.0399 11.8496 21.1482 11.8496C26.2521 11.8496 30.394 15.9871 30.394 21.0954Z" stroke="#FCC962" stroke-width="4"/>
</svg>
