<svg width="24" height="25" viewBox="0 0 24 25" fill="none" xmlns="http://www.w3.org/2000/svg">
<path d="M11.0659 16.5032C11.6127 16.9379 12.3871 16.9377 12.9336 16.5026L19.36 11.3867L19.5182 11.2614C20.2755 10.6617 20.2768 9.51282 19.5207 8.91147L12.9337 3.67275C12.3871 3.23806 11.6129 3.23806 11.0663 3.67275L4.47483 8.91506C3.72015 9.51527 3.71966 10.6614 4.47383 11.2622L4.63 11.3867L11.0659 16.5032Z" fill="black"/>
<path opacity="0.3" fill-rule="evenodd" clip-rule="evenodd" d="M12.9235 19.1009C12.377 19.5355 11.6029 19.5356 11.0564 19.101L5.33835 14.5552C4.94311 14.241 4.36728 14.3104 4.05812 14.7096C3.75043 15.107 3.82487 15.6788 4.22404 15.9841L11.0873 21.2335C11.6251 21.6448 12.3718 21.6449 12.9096 21.2336L19.7696 15.9888C20.1722 15.681 20.247 15.1043 19.9364 14.7039C19.6247 14.3021 19.0448 14.2325 18.6468 14.549L12.9235 19.1009Z" fill="black"/>
</svg>
