<svg width="102" height="102" viewBox="0 0 102 102" fill="none" xmlns="http://www.w3.org/2000/svg">
<path d="M100.441 26.9512C101.15 27.3032 101.637 28.0337 101.637 28.8786V82.7671C101.637 83.955 100.673 84.9181 99.4855 84.9181H92.9856C91.8079 88.4107 89.8361 91.5399 87.2874 94.0886C83.0033 98.3727 77.084 101.023 70.546 101.023C64.0092 101.023 58.0887 98.3727 53.8045 94.0886C51.2546 91.5387 49.2841 88.4107 48.1063 84.9181H2.889C1.70108 84.9181 0.738037 83.955 0.738037 82.7671V28.8786C0.738037 28.021 1.23989 27.2816 1.96535 26.936L45.5539 1.56399C47.344 0.522178 49.265 0 51.186 0C53.1096 0 55.0293 0.522178 56.8207 1.56399L100.441 26.9512ZM35.7659 39.589C34.578 39.589 33.6149 38.6259 33.6149 37.438C33.6149 36.2501 34.578 35.287 35.7659 35.287H66.6087C67.7966 35.287 68.7596 36.2501 68.7596 37.438C68.7596 38.6259 67.7966 39.589 66.6087 39.589H35.7659ZM51.6053 29.8569C52.7932 29.8569 53.7562 30.8199 53.7562 32.0079C53.7562 33.1958 52.7932 34.1588 51.6053 34.1588H35.7659C34.578 34.1588 33.6149 33.1958 33.6149 32.0079C33.6149 30.8199 34.578 29.8569 35.7659 29.8569H51.6053ZM5.03997 32.5338V77.9989L36.5345 50.1037C26.0363 44.2466 15.5382 38.3909 5.03997 32.5338ZM20.7142 36.367V23.9922C20.7142 22.8043 21.6772 21.8413 22.8652 21.8413H79.5081C80.696 21.8413 81.6591 22.8043 81.6591 23.9922V36.3682L95.1531 28.8405L54.6685 5.27895C53.5504 4.62845 52.3638 4.30193 51.186 4.30193C50.0108 4.30193 48.8241 4.62845 47.7061 5.27895L7.22143 28.8405L20.7142 36.367ZM65.84 50.1037L69.8777 53.6801L70.546 53.6712C77.084 53.6712 83.0033 56.3215 87.2874 60.6057C91.0862 64.4045 93.6006 69.4916 94.1215 75.153L97.3346 77.9989V32.5338C86.8364 38.3909 76.3382 44.2466 65.84 50.1037ZM77.3571 38.7682V26.1432H25.0161V38.7669L39.9369 47.09L44.061 43.4373C46.1091 41.6243 48.6513 40.7159 51.1873 40.7159C53.7232 40.7159 56.2655 41.6243 58.3135 43.4373L62.4376 47.0913L77.3571 38.7682ZM89.9199 77.3471C89.9199 71.9983 87.7512 67.1526 84.2458 63.6472C80.7405 60.1419 75.8961 57.9732 70.546 57.9732C65.1971 57.9732 60.3514 60.1419 56.8461 63.6472C53.3408 67.1526 51.172 71.9983 51.172 77.3471C51.172 82.4774 53.182 87.3828 56.8461 91.047C60.3514 94.5523 65.1971 96.721 70.546 96.721C75.8961 96.721 80.7405 94.5523 84.2458 91.047C87.9112 87.3816 89.9199 82.4787 89.9199 77.3471ZM64.3332 54.4958C61.3805 51.8786 58.4266 49.2626 55.4727 46.6466C54.2467 45.5616 52.7182 45.0178 51.1873 45.0178C49.6563 45.0178 48.1266 45.5629 46.9019 46.6466C34.118 57.9694 21.3329 69.2934 8.54911 80.6161H47.095C46.9476 79.5476 46.8701 78.4563 46.8701 77.3471C46.8701 70.8104 49.5204 64.8898 53.8045 60.6057C56.6797 57.7305 60.2917 55.5922 64.3332 54.4958ZM62.8226 70.2424L67.5272 62.3247C68.1295 61.3044 69.4483 60.9665 70.4685 61.5687C70.6273 61.6627 70.7696 61.7733 70.8941 61.899L74.4439 65.4437C74.7564 65.7563 74.9521 66.1413 75.0321 66.5453L76.0625 70.2424H81.0632C81.6934 70.2424 82.2994 70.3746 82.8623 70.6338C83.4187 70.8904 83.9117 71.2614 84.3233 71.7391C84.7324 72.2143 85.0234 72.758 85.1949 73.3501C85.3677 73.9485 85.4083 74.5672 85.3156 75.1847L83.7453 85.5635C83.5864 86.6142 83.0566 87.5264 82.3007 88.1782C81.5371 88.8363 80.5563 89.2251 79.4929 89.2251H57.8739C56.686 89.2251 55.723 88.262 55.723 87.0741V72.3934C55.723 71.2055 56.686 70.2424 57.8739 70.2424H62.8226ZM66.1932 84.9231H79.4929L81.0645 74.5469L74.435 74.5444C73.4948 74.538 72.6309 73.9155 72.3679 72.9651L71.011 68.094L69.8091 66.8921L66.1932 72.9766V84.9231ZM61.8913 74.5444H60.0249V84.9231H61.8913V74.5444Z" fill="#5E78B5"/>
</svg>
