<svg width="24" height="24" viewBox="0 0 24 24" fill="none" xmlns="http://www.w3.org/2000/svg">
<path fill-rule="evenodd" clip-rule="evenodd" d="M3 12C3 11.5582 3.35039 11.2 3.78261 11.2L12.2465 11.2L10.3604 9.38207C10.0459 9.07897 10.0313 8.57266 10.3278 8.25119C10.6243 7.92972 11.1196 7.91483 11.4341 8.21793L14.7543 11.4179C14.9111 11.5691 15 11.7797 15 12C15 12.2203 14.9111 12.4309 14.7543 12.5821L11.4341 15.7821C11.1196 16.0852 10.6243 16.0703 10.3278 15.7488C10.0313 15.4273 10.0459 14.921 10.3604 14.6179L12.2465 12.8L3.78261 12.8C3.35039 12.8 3 12.4418 3 12Z" fill="#001E50"/>
<path fill-rule="evenodd" clip-rule="evenodd" d="M13 21.2308C13 20.8059 13.3582 20.4615 13.8 20.4615L17.7385 20.4615C18.6753 20.4615 19.4 19.7545 19.4 18.9231L19.4 5.07692C19.4 4.24551 18.6753 3.53846 17.7385 3.53846L13.8 3.53846C13.3582 3.53846 13 3.19406 13 2.76923C13 2.3444 13.3582 2 13.8 2L17.7385 2C19.5205 2 21 3.35935 21 5.07692L21 18.9231C21 20.6407 19.5205 22 17.7385 22L13.8 22C13.3582 22 13 21.6556 13 21.2308Z" fill="#001E50"/>
</svg>
