<svg width="107" height="107" viewBox="0 0 107 107" fill="none" xmlns="http://www.w3.org/2000/svg">
<path d="M45.7423 38.2936C43.5688 37.2906 41.6092 35.8841 39.966 34.1519C41.2401 31.8693 43.0683 29.9372 45.2885 28.5376C47.7885 26.9617 50.6833 26.1255 53.6385 26.1255C56.5937 26.1255 59.4885 26.9617 61.9884 28.5376C64.2087 29.9372 66.0369 31.8693 67.311 34.1519C65.6678 35.8841 63.7082 37.2906 61.5347 38.2936C59.0591 39.436 56.365 40.0276 53.6385 40.0276C50.912 40.0276 48.2179 39.436 45.7423 38.2936Z" stroke="#0D3561" stroke-width="3"/>
<path d="M72.5253 21.1393V21.1419C72.5286 24.4255 71.6711 27.6387 70.0567 30.4679C68.8557 28.7339 67.3856 27.1959 65.6973 25.9143C64.2041 24.7808 62.5635 23.8655 60.8254 23.1913C61.6833 22.3579 62.3957 21.3756 62.9237 20.2835C63.9415 18.1784 64.2138 15.7898 63.6958 13.5097C63.1779 11.2295 61.9004 9.19295 60.0731 7.73411C58.2457 6.27527 55.9768 5.48069 53.6385 5.48069C51.3002 5.48069 49.0313 6.27527 47.2039 7.73411C45.3766 9.19295 44.0991 11.2295 43.5812 13.5097C43.0632 15.7898 43.3355 18.1784 44.3533 20.2835C44.8813 21.3756 45.5937 22.3579 46.4516 23.1913C44.7135 23.8655 43.0729 24.7808 41.5797 25.9143C39.8925 27.1952 38.4231 28.732 37.2226 30.4647C36.1292 28.543 35.3788 26.4388 35.0114 24.2466C34.5174 21.2983 34.7302 18.2748 35.6324 15.4249C36.5347 12.5749 38.1005 9.97975 40.2012 7.85291C42.3019 5.72607 44.8775 4.12825 47.7161 3.19086C50.5547 2.25347 53.5753 2.00327 56.5295 2.46085C59.4836 2.91843 62.287 4.07071 64.709 5.82293C67.131 7.57516 69.1025 9.87727 70.4613 12.54C71.8202 15.2027 72.5275 18.1499 72.5253 21.1393Z" stroke="#0D3561" stroke-width="3"/>
<path d="M59.6646 15.8067C59.6646 19.1347 56.9667 21.8327 53.6386 21.8327C50.3106 21.8327 47.6127 19.1347 47.6127 15.8067C47.6127 12.4787 50.3106 9.78076 53.6386 9.78076C56.9667 9.78076 59.6646 12.4787 59.6646 15.8067Z" stroke="#0D3561" stroke-width="3"/>
<path d="M101.711 40.4563L101.711 53.7616H99.9895V43.8879C99.9895 43.3193 99.7636 42.774 99.3616 42.372C98.9596 41.97 98.4143 41.7441 97.8457 41.7441H87.972V40.0229H101.278C101.393 40.0233 101.502 40.069 101.584 40.15L102.635 39.0988L101.584 40.15C101.665 40.2312 101.71 40.3411 101.711 40.4558C101.711 40.456 101.711 40.4562 101.711 40.4563Z" stroke="#0D3561" stroke-width="3"/>
<path d="M20.5858 43.0249L20.1612 42.6003L20.5858 43.0249ZM20.5858 43.0249L20.6161 43.0552L20.5858 43.0249ZM7.28756 53.7616H5.56641V40.4557C5.56673 40.341 5.61242 40.2311 5.69351 40.15C5.7746 40.069 5.88448 40.0233 5.99915 40.0229H19.305V41.7441H9.43135C8.86279 41.7441 8.3175 41.97 7.91546 42.372C7.51342 42.774 7.28756 43.3193 7.28756 43.8879V53.7616Z" stroke="#0D3561" stroke-width="3"/>
<path d="M76.7058 32.4094C77.326 33.0297 77.6749 33.8707 77.6757 34.7479V46.1616C77.6749 47.0388 77.326 47.8798 76.7058 48.5001C76.0855 49.1203 75.2445 49.4692 74.3673 49.47H32.9099C32.0327 49.4692 31.1917 49.1203 30.5714 48.5001C29.9513 47.88 29.6025 47.0392 29.6014 46.1622V34.7473C29.6025 33.8703 29.9513 33.0295 30.5714 32.4094C31.1859 31.795 32.0169 31.4469 32.8852 31.4396C34.7247 35.1506 37.5289 38.3063 41.0113 40.5708C44.7694 43.0145 49.1558 44.3153 53.6386 44.3153C58.1213 44.3153 62.5078 43.0145 66.2659 40.5708C69.7483 38.3063 72.5525 35.1506 74.392 31.4396C75.2602 31.4469 76.0913 31.795 76.7058 32.4094Z" stroke="#0D3561" stroke-width="3"/>
<path d="M99.5649 79.7228V79.726C99.5639 82.4177 98.8923 85.0544 97.6264 87.4033C96.6142 86.0161 95.4047 84.7786 94.0327 83.7316C92.8 82.791 91.4535 82.0175 90.0286 81.4276C90.7246 80.6896 91.3003 79.8378 91.7271 78.9019C92.5933 77.0025 92.7963 74.8671 92.3035 72.8385C91.8106 70.8098 90.6504 69.0056 89.0092 67.7154C87.368 66.4252 85.3409 65.7238 83.2532 65.7238C81.1656 65.7238 79.1385 66.4252 77.4972 67.7154C75.856 69.0056 74.6959 70.8098 74.203 72.8385C73.7101 74.8671 73.9131 77.0025 74.7794 78.9019C75.2062 79.8378 75.7819 80.6896 76.4779 81.4276C75.0529 82.0176 73.7064 82.7912 72.4736 83.732L73.3017 84.817L72.4736 83.732C71.1029 84.778 69.8944 86.0143 68.8828 87.4C68.0277 85.8078 67.4406 84.0797 67.1506 82.2851C66.7392 79.7396 66.9372 77.1328 67.7282 74.6786C68.5193 72.2244 69.8809 69.9926 71.7014 68.1665C73.5219 66.3404 75.7494 64.9719 78.2011 64.1732C80.6529 63.3746 83.2591 63.1685 85.8059 63.5721C88.3527 63.9756 90.7675 64.9771 92.8523 66.4945C94.9371 68.012 96.6325 70.002 97.7993 72.3015C98.9661 74.6009 99.5712 77.1442 99.5649 79.7228Z" stroke="#0D3561" stroke-width="3"/>
<path d="M76.4564 94.5475C74.6305 93.7067 72.9792 92.5356 71.5843 91.0962C72.6803 89.1995 74.225 87.594 76.089 86.4242C78.2356 85.0769 80.7187 84.3623 83.2531 84.3623C85.7875 84.3623 88.2705 85.0769 90.4171 86.4242C92.2811 87.594 93.8258 89.1995 94.9218 91.0962C93.5269 92.5356 91.8756 93.7067 90.0497 94.5475C87.9183 95.529 85.5996 96.0373 83.2531 96.0373C80.9065 96.0373 78.5878 95.529 76.4564 94.5475Z" stroke="#0D3561" stroke-width="3"/>
<path d="M88.279 75.0454C88.279 77.8212 86.0288 80.0714 83.2531 80.0714C80.4774 80.0714 78.2272 77.8212 78.2272 75.0454C78.2272 72.2697 80.4774 70.0195 83.2531 70.0195C86.0288 70.0195 88.279 72.2697 88.279 75.0454Z" stroke="#0D3561" stroke-width="3"/>
<path d="M93.6062 97.5313C96.4947 95.85 98.9264 93.493 100.696 90.668H102.483C103.189 90.6688 103.865 90.9495 104.364 91.4484C104.863 91.9474 105.144 92.6241 105.144 93.3298V102.603C105.144 103.309 104.863 103.986 104.364 104.485C103.865 104.984 103.188 105.264 102.483 105.265H64.0239C63.3182 105.264 62.6415 104.984 62.1425 104.485C61.6436 103.986 61.3629 103.309 61.3621 102.604V93.3292C61.3629 92.6237 61.6435 91.9474 62.1424 91.4485C62.6412 90.9496 63.3175 90.6689 64.023 90.668H65.8104C67.5796 93.493 70.0114 95.85 72.8999 97.5313C76.0434 99.361 79.6157 100.325 83.253 100.325C86.8903 100.325 90.4626 99.361 93.6062 97.5313Z" stroke="#0D3561" stroke-width="3"/>
<path d="M17.2275 94.5475C15.4016 93.7067 13.7503 92.5356 12.3554 91.0962C13.4514 89.1995 14.9962 87.594 16.8601 86.4242C19.0068 85.0769 21.4898 84.3623 24.0242 84.3623C26.5586 84.3623 29.0416 85.0769 31.1883 86.4242C33.0522 87.594 34.5969 89.1995 35.693 91.0962C34.2981 92.5356 32.6467 93.7067 30.8208 94.5475C28.6894 95.529 26.3707 96.0373 24.0242 96.0373C21.6776 96.0373 19.3589 95.529 17.2275 94.5475Z" stroke="#0D3561" stroke-width="3"/>
<path d="M40.3357 79.7228V79.726C40.3348 82.4177 39.6632 85.0544 38.3973 87.4033C37.3851 86.0161 36.1755 84.7786 34.8035 83.7316C33.5708 82.791 32.2244 82.0175 30.7994 81.4276C31.4955 80.6896 32.0711 79.8378 32.4979 78.9019C33.3642 77.0025 33.5672 74.8671 33.0743 72.8385C32.5815 70.8098 31.4213 69.0056 29.7801 67.7154C28.1389 66.4252 26.1117 65.7238 24.0241 65.7238C21.9364 65.7238 19.9093 66.4252 18.2681 67.7154C16.6269 69.0056 15.4667 70.8098 14.9739 72.8385C14.481 74.8671 14.684 77.0025 15.5503 78.9019C15.9771 79.8378 16.5527 80.6896 17.2488 81.4276C15.8238 82.0176 14.4773 82.7912 13.2445 83.732L14.0726 84.817L13.2445 83.732C11.8738 84.778 10.6652 86.0143 9.65362 87.4C8.79854 85.8078 8.21149 84.0797 7.92146 82.2851C7.51007 79.7396 7.70803 77.1328 8.49909 74.6786C9.29015 72.2244 10.6518 69.9926 12.4723 68.1665C14.2928 66.3404 16.5203 64.9719 18.972 64.1732C21.4238 63.3746 24.0299 63.1685 26.5767 63.5721C29.1235 63.9756 31.5384 64.9771 33.6232 66.4945C35.708 68.012 37.4033 70.002 38.5702 72.3015C39.737 74.6009 40.3421 77.1442 40.3357 79.7228Z" stroke="#0D3561" stroke-width="3"/>
<path d="M45.1349 91.4484C45.6339 91.9474 45.9146 92.6241 45.9153 93.3298V102.603C45.9146 103.309 45.6339 103.986 45.1349 104.485C44.6358 104.984 43.9592 105.264 43.2534 105.265H4.79481C4.08905 105.264 3.41239 104.984 2.91334 104.485C2.41445 103.986 2.1338 103.309 2.13293 102.604V93.3292C2.1338 92.6237 2.41441 91.9474 2.91325 91.4485C3.41207 90.9496 4.08838 90.6689 4.79385 90.668H6.58123C8.35052 93.493 10.7822 95.85 13.6707 97.5313C16.8143 99.361 20.3866 100.325 24.0239 100.325C27.6612 100.325 31.2335 99.361 34.377 97.5313C37.2656 95.85 39.6973 93.493 41.4665 90.668H43.254C43.9596 90.6688 44.636 90.9495 45.1349 91.4484Z" stroke="#0D3561" stroke-width="3"/>
<path d="M29.0501 75.0454C29.0501 77.8212 26.8 80.0714 24.0242 80.0714C21.2485 80.0714 18.9983 77.8212 18.9983 75.0454C18.9983 72.2697 21.2485 70.0195 24.0242 70.0195C26.8 70.0195 29.0501 72.2697 29.0501 75.0454Z" stroke="#0D3561" stroke-width="3"/>
</svg>
