<svg width="125" height="111" viewBox="0 0 125 111" fill="none" xmlns="http://www.w3.org/2000/svg">
<path d="M23.2379 75.4653L23.1616 75.4314C23.1426 75.4118 23.1164 75.3818 23.0849 75.3386C22.9178 75.1093 22.5049 74.3633 22.4583 72.5211C22.4636 72.4688 22.4716 72.3939 22.483 72.2977C22.5097 72.0727 22.555 71.7316 22.6274 71.291C22.7723 70.4092 23.025 69.1328 23.4528 67.5937C24.3061 64.5235 25.8461 60.4438 28.5878 56.3693C28.5898 56.3668 28.5919 56.3643 28.5942 56.3615C28.624 56.3251 28.6791 56.2598 28.7606 56.1714C28.9236 55.9944 29.1913 55.7252 29.5722 55.408C30.3329 54.7746 31.5467 53.9479 33.288 53.2773L33.3279 53.2619L33.3671 53.2449L45.8711 47.806C46.2505 50.1825 46.7444 52.8054 47.2008 55.1016C47.563 56.9242 47.9063 58.5639 48.1589 59.7479C48.2853 60.3401 48.3891 60.8188 48.4614 61.1499C48.4976 61.3155 48.5259 61.4442 48.5452 61.5318L48.5673 61.6318L48.5731 61.6577L48.5746 61.6645L48.575 61.6663L48.5751 61.6668C48.5751 61.6669 48.5751 61.667 50.5274 61.2326L48.5751 61.667L49.6638 66.5593L52.2395 62.2664C52.2401 62.2654 52.241 62.264 52.2422 62.2622L52.2556 62.2412L52.2779 62.2064C52.2781 62.2059 52.2784 62.2055 52.2787 62.205C52.2787 62.205 52.2788 62.2049 52.2788 62.2049C52.9909 61.0795 53.6534 60.1175 54.2646 59.295C54.3478 59.4692 54.4349 59.6425 54.526 59.8136C54.1432 61.7697 53.2308 66.6284 52.4997 72.0703L46.4635 63.3384L45.3696 61.7561L43.7459 62.7875L23.5647 75.6078C23.4538 75.5604 23.3448 75.513 23.2379 75.4653ZM23.1952 75.4622C23.1952 75.4622 23.1944 75.4617 23.1929 75.4605C23.1944 75.4616 23.1952 75.4621 23.1952 75.4622Z" stroke="#FC895F" stroke-width="4"/>
<path d="M71.2124 55.279C71.6353 53.0266 72.0947 50.4488 72.4543 48.0904C74.71 49.5351 77.8381 50.8429 80.3035 51.7678C81.563 52.2403 82.6887 52.6271 83.5001 52.896C83.9062 53.0306 84.2347 53.136 84.4631 53.2082C84.5773 53.2444 84.6666 53.2722 84.7281 53.2912L84.7522 53.2987C85.5102 53.5941 86.1652 53.9179 86.7249 54.2414L68.9295 66.5381L69.9462 61.6905L67.9888 61.28C69.9462 61.6905 69.9462 61.6904 69.9463 61.6903L69.9464 61.6898L69.9467 61.688L69.9481 61.6815L69.9534 61.6563L69.9736 61.5591C69.9913 61.474 70.0173 61.3488 70.0504 61.1876C70.1168 60.8654 70.2121 60.3993 70.3283 59.8218C70.5607 58.6673 70.8769 57.066 71.2124 55.279ZM68.8659 66.5821L65.5311 68.8864C65.1412 65.6342 64.649 62.4027 64.0368 59.9376C64.1349 59.7589 64.232 59.5715 64.3278 59.3749C64.9363 60.2059 65.588 61.1784 66.2788 62.3172L68.8659 66.5821Z" stroke="#FC895F" stroke-width="4"/>
<path d="M44.7398 28.2105L44.7217 28.0946L44.6905 27.9828L44.6905 27.9828L44.6904 27.9824L44.6903 27.9821L44.6902 27.9816L44.6895 27.9792L44.6837 27.958C44.6783 27.9379 44.6697 27.906 44.6587 27.8637C44.6366 27.779 44.6046 27.6532 44.5673 27.497C44.4923 27.1822 44.3987 26.7553 44.321 26.2977C44.2421 25.8327 44.1868 25.3774 44.1751 24.9953C44.164 24.6312 44.1986 24.4858 44.1954 24.485C44.195 24.4849 44.1939 24.4873 44.192 24.492L44.5003 23.7249L44.1667 22.9585L44.1665 22.9578L44.1664 22.9576C44.1403 22.8968 42.8432 19.8295 43.3764 14.8652C43.3782 14.8563 43.3802 14.8465 43.3825 14.8358C43.3975 14.7641 43.4221 14.6515 43.4577 14.5032C43.529 14.2063 43.6439 13.7689 43.8131 13.2337C44.1531 12.1582 44.7037 10.7155 45.5429 9.23411C47.2291 6.25746 49.9478 3.33161 54.3143 2.59619L54.3882 2.58374L54.4584 2.56644L54.4589 2.56633L54.4589 2.56632L54.4593 2.56621L54.4601 2.56603L54.4687 2.56398C54.4792 2.56149 54.4975 2.55719 54.5233 2.55132C54.5748 2.53957 54.6562 2.52154 54.7646 2.49906C54.9817 2.45407 55.3061 2.39147 55.7162 2.32577C56.539 2.19396 57.693 2.05191 59.0083 2.01137C61.6998 1.92841 64.7853 2.2805 67.1477 3.72644L67.309 3.82515L67.486 3.89189C70.1174 4.88449 71.6382 6.47306 72.5086 7.78484C72.9484 8.44755 73.2244 9.04425 73.3871 9.46181C73.4682 9.66991 73.5202 9.83115 73.5497 9.93068C73.5645 9.98036 73.5736 10.0144 73.5778 10.0308C73.5786 10.0338 73.5792 10.0362 73.5796 10.038L73.6459 10.3361L73.8082 10.6102C75.1562 12.8871 75.3996 15.6003 75.2265 17.9382C75.055 20.2526 74.4915 21.9791 74.4509 22.1008L74.15 23.0037L74.6608 23.8068C74.661 23.807 74.6824 23.8398 74.7054 23.9238C74.7289 24.0095 74.7568 24.1587 74.7586 24.3907C74.7623 24.8635 74.6573 25.6489 74.2265 26.8546L74.181 26.9819L74.1536 27.112L74.1535 27.1125L74.1533 27.1132L74.1532 27.1137L74.1531 27.1142L74.153 27.1147L74.1486 27.1345C74.147 27.1419 74.145 27.1509 74.1426 27.1617C74.1386 27.1793 74.1335 27.2014 74.1274 27.2276C74.1076 27.3122 74.0769 27.4391 74.0354 27.5978C73.9518 27.9172 73.8271 28.3549 73.6633 28.8289C73.3022 29.8743 72.8699 30.7357 72.4917 31.1139L72.1759 31.4297L72.0244 31.8498C71.2864 33.8972 70.1797 35.9263 68.8215 37.7304C68.821 37.731 68.8205 37.7317 68.82 37.7324L68.6944 37.8984C68.6931 37.9 68.6919 37.9016 68.6907 37.9032C68.4937 38.1601 68.2946 38.4087 68.0931 38.6457L67.605 39.2199L67.6172 39.9734C67.6224 40.2891 67.6404 40.5938 67.6695 40.8877C66.5874 43.9018 64.3052 48.2235 59.9293 50.1219L59.9218 50.1251C59.6188 50.2581 59.3011 50.38 58.9694 50.4899C58.7086 50.4086 58.4522 50.3178 58.1978 50.2189C53.6121 48.4332 51.4207 44.0067 50.4612 41.077C50.5434 40.4226 50.5445 39.8564 50.52 39.4274L50.4847 38.8104L50.1075 38.3208C48.4227 36.134 47.0825 33.532 46.3522 30.8807L46.1127 30.0111L45.3287 29.6279C45.3091 29.6129 45.2595 29.5708 45.1963 29.4879C45.0806 29.3359 44.8582 28.9674 44.7398 28.2105ZM73.5806 10.042L73.5806 10.0418L73.5806 10.042ZM45.338 29.6345C45.338 29.6345 45.3371 29.634 45.3356 29.6329C45.3372 29.6339 45.338 29.6345 45.338 29.6345ZM43.3644 14.9254C43.3643 14.926 43.3643 14.9259 43.3645 14.925L43.3644 14.9254Z" stroke="#FC895F" stroke-width="4"/>
<path d="M2.97903 97.4016L43.3422 71.7599L52.2178 84.5987L53.3548 86.2435L54.9999 85.1068L97.8907 55.4705L99.536 54.3336L98.3992 52.6883L93.9495 46.2477L121.388 46.6472L112.057 72.4499L107.605 66.0094L106.467 64.3647L104.822 65.5013L50.257 103.203L41.5169 90.5548L40.446 89.0051L38.835 89.9813L9.94841 107.485L2.97903 97.4016Z" stroke="#FC895F" stroke-width="4"/>
</svg>
