<svg width="106" height="97" viewBox="0 0 106 97" fill="none" xmlns="http://www.w3.org/2000/svg">
<path fill-rule="evenodd" clip-rule="evenodd" d="M101.639 3.17107H3.97597C3.80179 3.1726 3.63517 3.24247 3.512 3.36564C3.38883 3.48881 3.31896 3.65542 3.31744 3.8296V7.04052C3.31896 7.2147 3.38883 7.38132 3.512 7.50448C3.63517 7.62765 3.80179 7.69752 3.97597 7.69905H101.639C101.813 7.69752 101.98 7.62765 102.103 7.50448C102.226 7.38132 102.296 7.2147 102.298 7.04052V3.8296C102.296 3.65542 102.226 3.48881 102.103 3.36564C101.98 3.24247 101.813 3.1726 101.639 3.17107ZM97.9799 10.4815H7.63524V69.5238H97.9799V10.4815ZM54.2297 90.0631C54.0426 89.8772 53.8207 89.7299 53.5767 89.6297C53.3327 89.5296 53.0713 89.4784 52.8076 89.4793C52.3426 89.4807 51.8926 89.6432 51.5341 89.9393C51.1756 90.2353 50.9308 90.6465 50.8415 91.1028C50.7522 91.5591 50.8239 92.0322 51.0444 92.4415C51.2648 92.8509 51.6204 93.1711 52.0505 93.3476C52.4806 93.5242 52.9586 93.5462 53.4031 93.4098C53.8475 93.2734 54.2309 92.9871 54.488 92.5997C54.745 92.2123 54.8598 91.7477 54.8127 91.2852C54.7656 90.8226 54.5596 90.3907 54.2297 90.0631ZM54.1993 86.8965C55.2975 87.2302 56.2392 87.9473 56.8529 88.9172C57.4666 89.8871 57.7114 91.0452 57.5428 92.1805C57.3741 93.3158 56.8032 94.3526 55.934 95.1022C55.0648 95.8518 53.9553 96.2641 52.8076 96.2641C51.6598 96.2641 50.5503 95.8518 49.6811 95.1022C48.812 94.3526 48.241 93.3158 48.0724 92.1805C47.9037 91.0452 48.1485 89.8871 48.7622 88.9172C49.3759 87.9473 50.3176 87.2302 51.4158 86.8965V72.3015H6.24463C5.8755 72.3015 5.52149 72.1548 5.26048 71.8938C4.99947 71.6328 4.85284 71.2788 4.85284 70.9097V10.4815H3.97597C3.06385 10.4799 2.18953 10.1169 1.54456 9.47192C0.899599 8.82695 0.536578 7.95264 0.535034 7.04052V3.8296C0.536578 2.91749 0.899599 2.04317 1.54456 1.3982C2.18953 0.753237 3.06385 0.390215 3.97597 0.388672H101.639C102.551 0.390215 103.426 0.753237 104.071 1.3982C104.716 2.04317 105.079 2.91749 105.08 3.8296V7.04052C105.079 7.95264 104.716 8.82695 104.071 9.47192C103.426 10.1169 102.551 10.4799 101.639 10.4815H100.762V70.9144C100.762 71.2835 100.616 71.6375 100.355 71.8985C100.094 72.1595 99.7396 72.3062 99.3705 72.3062H54.1993V86.9012V86.8965ZM40.1881 62.3208V40.253H43.9781V62.3208H40.1881ZM29.1764 62.3208V43.9999H32.9664V62.3208H29.1764ZM18.1647 62.3208V53.6747H21.9548V62.3208H18.1647ZM13.6718 65.1044C13.3026 65.1044 12.9486 64.9577 12.6876 64.6967C12.4266 64.4357 12.28 64.0817 12.28 63.7126C12.28 63.3435 12.4266 62.9894 12.6876 62.7284C12.9486 62.4674 13.3026 62.3208 13.6718 62.3208H15.3823V52.2794C15.3823 51.9105 15.5288 51.5566 15.7895 51.2957C16.0503 51.0347 16.404 50.8879 16.7729 50.8876H23.3465C23.7155 50.8879 24.0692 51.0347 24.3299 51.2957C24.5907 51.5566 24.7372 51.9105 24.7372 52.2794V62.3208H26.394V42.6128C26.394 42.244 26.5405 41.8903 26.8013 41.6295C27.0621 41.3687 27.4158 41.2222 27.7846 41.2222H34.3594C34.7282 41.2222 35.0819 41.3687 35.3427 41.6295C35.6035 41.8903 35.75 42.244 35.75 42.6128V62.3208H37.4068V38.8519C37.4081 38.4841 37.555 38.1318 37.8154 37.872C38.0758 37.6123 38.4285 37.4663 38.7963 37.466H45.3699C45.5526 37.4658 45.7336 37.5017 45.9024 37.5715C46.0713 37.6413 46.2247 37.7437 46.354 37.8729C46.4832 38.002 46.5858 38.1554 46.6557 38.3242C46.7257 38.493 46.7617 38.6739 46.7617 38.8566V62.3255H48.4722C48.8414 62.3255 49.1954 62.4721 49.4564 62.7331C49.7174 62.9941 49.864 63.3481 49.864 63.7172C49.864 64.0864 49.7174 64.4404 49.4564 64.7014C49.1954 64.9624 48.8414 65.109 48.4722 65.109L13.6718 65.1044ZM38.0117 26.8921C37.8307 26.8511 37.6597 26.7742 37.5089 26.666C37.3581 26.5578 37.2305 26.4205 37.1336 26.2622C37.0367 26.104 36.9724 25.9279 36.9446 25.7444C36.9168 25.5609 36.926 25.3737 36.9717 25.1938C37.0173 25.0139 37.0986 24.845 37.2105 24.697C37.3225 24.549 37.463 24.4249 37.6237 24.332C37.7844 24.2392 37.962 24.1794 38.1462 24.1563C38.3303 24.1331 38.5172 24.1471 38.6959 24.1973L44.834 25.7666C45.011 25.8115 45.1775 25.891 45.3238 26.0003C45.4702 26.1096 45.5935 26.2467 45.6869 26.4037C45.7802 26.5607 45.8418 26.7345 45.8679 26.9153C45.8941 27.0961 45.8843 27.2802 45.8393 27.4573L44.27 33.5942C44.2251 33.7712 44.1457 33.9377 44.0365 34.084C43.9272 34.2304 43.7902 34.3538 43.6333 34.4472C43.4764 34.5406 43.3026 34.6022 43.1218 34.6284C42.9411 34.6546 42.7569 34.645 42.5799 34.6001C42.4029 34.5552 42.2365 34.4758 42.0901 34.3666C41.9438 34.2573 41.8204 34.1203 41.7269 33.9634C41.6335 33.8064 41.572 33.6326 41.5457 33.4519C41.5195 33.2711 41.5291 33.087 41.574 32.91L42.3575 29.8485L37.4535 32.5048L34.7517 38.3522C34.6512 38.5885 34.4871 38.7923 34.2777 38.9409C34.0682 39.0895 33.8217 39.1772 33.5654 39.194L25.4225 39.7556L22.054 46.1425C21.9694 46.3041 21.8536 46.4474 21.7133 46.564C21.573 46.6806 21.411 46.7683 21.2367 46.822L14.3828 48.9342C14.2086 48.9879 14.0256 49.0067 13.8441 48.9896C13.6627 48.9725 13.4864 48.9199 13.3252 48.8347C13.1641 48.7495 13.0214 48.6333 12.9051 48.4929C12.7889 48.3526 12.7014 48.1906 12.6478 48.0165C12.5941 47.8423 12.5753 47.6592 12.5924 47.4778C12.6094 47.2963 12.6621 47.12 12.7473 46.9589C12.8325 46.7977 12.9486 46.655 13.089 46.5388C13.2294 46.4225 13.3913 46.3351 13.5655 46.2814L19.8706 44.3408L23.3314 37.7766C23.4416 37.5664 23.604 37.3881 23.8029 37.2587C24.0018 37.1293 24.2306 37.0531 24.4674 37.0375L32.5625 36.4794L35.1312 30.9216C35.2587 30.6457 35.4732 30.4192 35.7418 30.277L40.7193 27.5822L38.021 26.8921H38.0117ZM81.4139 13.4145C84.2203 13.4144 86.9399 14.3874 89.1093 16.1677C91.2787 17.948 92.7638 20.4255 93.3113 23.178C93.8589 25.9304 93.4351 28.7876 92.1123 31.2626C90.7894 33.7377 88.6492 35.6775 86.0565 36.7515C83.4637 37.8255 80.5788 37.9673 77.8932 37.1527C75.2076 36.3381 72.8876 34.6175 71.3284 32.2841C69.7692 29.9507 69.0673 27.1489 69.3423 24.356C69.6174 21.5631 70.8523 18.952 72.8367 16.9675C73.9616 15.8392 75.2985 14.9444 76.7705 14.3346C78.2425 13.7249 79.8206 13.4122 81.4139 13.4145ZM82.8045 16.2996C85.1386 16.6564 87.2522 17.8806 88.7231 19.7277L82.7998 23.1476V16.3055L82.8045 16.2996ZM72.1641 24.1529C72.4624 22.1775 73.3853 20.3493 74.7976 18.9362C76.2099 17.5231 78.0375 16.5991 80.0128 16.2996V24.1529H72.1641ZM81.4139 26.9353H81.4886H81.5201H81.5517H81.582H81.589H81.6206H81.6544L81.6871 26.9283L81.7186 26.9213C81.7513 26.9143 81.784 26.905 81.8155 26.8956C81.8692 26.8788 81.9218 26.8589 81.9732 26.8361L81.9954 26.8256L82.0502 26.7976L82.0771 26.7824L82.0993 26.7695L82.125 26.7532L82.1775 26.717L90.0729 22.1633C90.5555 23.3886 90.7739 24.7021 90.7137 26.0176C90.6535 27.3332 90.3161 28.6212 89.7236 29.7973C89.131 30.9734 88.2967 32.0111 87.2753 32.8423C86.2538 33.6736 85.0683 34.2797 83.7964 34.621C82.5244 34.9623 81.1947 35.031 79.8944 34.8227C78.594 34.6144 77.3523 34.1338 76.2506 33.4123C75.1489 32.6908 74.2121 31.7447 73.5014 30.636C72.7907 29.5272 72.3223 28.2809 72.1268 26.9785L81.4139 26.9353ZM64.9133 43.4651C64.7272 43.4705 64.5419 43.4385 64.3684 43.371C64.1949 43.3036 64.0367 43.2019 63.9032 43.0722C63.7697 42.9425 63.6635 42.7873 63.591 42.6158C63.5186 42.4444 63.4812 42.2601 63.4812 42.0739C63.4812 41.8878 63.5186 41.7035 63.591 41.532C63.6635 41.3605 63.7697 41.2054 63.9032 41.0756C64.0367 40.9459 64.1949 40.8443 64.3684 40.7768C64.5419 40.7093 64.7272 40.6773 64.9133 40.6827H92.1489C92.5108 40.6932 92.8545 40.8444 93.1068 41.1041C93.3592 41.3639 93.5003 41.7118 93.5003 42.0739C93.5003 42.4361 93.3592 42.784 93.1068 43.0437C92.8545 43.3035 92.5108 43.4546 92.1489 43.4651H64.9133ZM58.6841 43.4651C58.498 43.4705 58.3128 43.4385 58.1393 43.371C57.9658 43.3036 57.8076 43.2019 57.674 43.0722C57.5405 42.9425 57.4343 42.7873 57.3619 42.6158C57.2894 42.4444 57.252 42.2601 57.252 42.0739C57.252 41.8878 57.2894 41.7035 57.3619 41.532C57.4343 41.3605 57.5405 41.2054 57.674 41.0756C57.8076 40.9459 57.9658 40.8443 58.1393 40.7768C58.3128 40.7093 58.498 40.6773 58.6841 40.6827H60.9808C61.3428 40.6932 61.6864 40.8444 61.9388 41.1041C62.1911 41.3639 62.3323 41.7118 62.3323 42.0739C62.3323 42.4361 62.1911 42.784 61.9388 43.0437C61.6864 43.3035 61.3428 43.4546 60.9808 43.4651H58.6841ZM64.9133 49.7258C64.5442 49.7258 64.1902 49.5792 63.9292 49.3182C63.6681 49.0572 63.5215 48.7032 63.5215 48.334C63.5215 47.9649 63.6681 47.6109 63.9292 47.3499C64.1902 47.0889 64.5442 46.9423 64.9133 46.9423H92.1489C92.518 46.9423 92.872 47.0889 93.133 47.3499C93.394 47.6109 93.5406 47.9649 93.5406 48.334C93.5406 48.7032 93.394 49.0572 93.133 49.3182C92.872 49.5792 92.518 49.7258 92.1489 49.7258H64.9133ZM58.6841 49.7258C58.315 49.7258 57.961 49.5792 57.7 49.3182C57.439 49.0572 57.2923 48.7032 57.2923 48.334C57.2923 47.9649 57.439 47.6109 57.7 47.3499C57.961 47.0889 58.315 46.9423 58.6841 46.9423H60.9808C61.3499 46.9423 61.7039 47.0889 61.9649 47.3499C62.226 47.6109 62.3726 47.9649 62.3726 48.334C62.3726 48.7032 62.226 49.0572 61.9649 49.3182C61.7039 49.5792 61.3499 49.7258 60.9808 49.7258H58.6841ZM64.9133 55.9854C64.7272 55.9908 64.5419 55.9588 64.3684 55.8913C64.1949 55.8238 64.0367 55.7222 63.9032 55.5925C63.7697 55.4627 63.6635 55.3075 63.591 55.1361C63.5186 54.9646 63.4812 54.7803 63.4812 54.5942C63.4812 54.408 63.5186 54.2237 63.591 54.0522C63.6635 53.8808 63.7697 53.7256 63.9032 53.5959C64.0367 53.4662 64.1949 53.3645 64.3684 53.2971C64.5419 53.2296 64.7272 53.1976 64.9133 53.203H92.1489C92.5108 53.2134 92.8545 53.3646 93.1068 53.6244C93.3592 53.8841 93.5003 54.232 93.5003 54.5942C93.5003 54.9563 93.3592 55.3042 93.1068 55.5639C92.8545 55.8237 92.5108 55.9749 92.1489 55.9854H64.9133ZM58.6841 55.9854C58.498 55.9908 58.3128 55.9588 58.1393 55.8913C57.9658 55.8238 57.8076 55.7222 57.674 55.5925C57.5405 55.4627 57.4343 55.3075 57.3619 55.1361C57.2894 54.9646 57.252 54.7803 57.252 54.5942C57.252 54.408 57.2894 54.2237 57.3619 54.0522C57.4343 53.8808 57.5405 53.7256 57.674 53.5959C57.8076 53.4662 57.9658 53.3645 58.1393 53.2971C58.3128 53.2296 58.498 53.1976 58.6841 53.203H60.9808C61.3428 53.2134 61.6864 53.3646 61.9388 53.6244C62.1911 53.8841 62.3323 54.232 62.3323 54.5942C62.3323 54.9563 62.1911 55.3042 61.9388 55.5639C61.6864 55.8237 61.3428 55.9749 60.9808 55.9854H58.6841ZM64.9133 62.2461C64.7272 62.2515 64.5419 62.2195 64.3684 62.152C64.1949 62.0845 64.0367 61.9829 63.9032 61.8532C63.7697 61.7234 63.6635 61.5682 63.591 61.3968C63.5186 61.2253 63.4812 61.041 63.4812 60.8549C63.4812 60.6687 63.5186 60.4844 63.591 60.313C63.6635 60.1415 63.7697 59.9863 63.9032 59.8566C64.0367 59.7269 64.1949 59.6252 64.3684 59.5578C64.5419 59.4903 64.7272 59.4583 64.9133 59.4637H92.1489C92.5108 59.4742 92.8545 59.6253 93.1068 59.8851C93.3592 60.1448 93.5003 60.4927 93.5003 60.8549C93.5003 61.217 93.3592 61.5649 93.1068 61.8246C92.8545 62.0844 92.5108 62.2356 92.1489 62.2461H64.9133ZM58.6841 62.2461C58.498 62.2515 58.3128 62.2195 58.1393 62.152C57.9658 62.0845 57.8076 61.9829 57.674 61.8532C57.5405 61.7234 57.4343 61.5682 57.3619 61.3968C57.2894 61.2253 57.252 61.041 57.252 60.8549C57.252 60.6687 57.2894 60.4844 57.3619 60.313C57.4343 60.1415 57.5405 59.9863 57.674 59.8566C57.8076 59.7269 57.9658 59.6252 58.1393 59.5578C58.3128 59.4903 58.498 59.4583 58.6841 59.4637H60.9808C61.3428 59.4742 61.6864 59.6253 61.9388 59.8851C62.1911 60.1448 62.3323 60.4927 62.3323 60.8549C62.3323 61.217 62.1911 61.5649 61.9388 61.8246C61.6864 62.0844 61.3428 62.2356 60.9808 62.2461H58.6841Z" fill="#FD6A36"/>
</svg>
