<svg width="106" height="82" viewBox="0 0 106 82" fill="none" xmlns="http://www.w3.org/2000/svg">
<path d="M53.042 40.8114L50.6793 42.8565L53.5259 44.1455C59.8797 47.0226 65.2704 51.6688 69.0535 57.5286C72.8365 63.3882 74.8519 70.2134 74.8587 77.1882C74.8583 77.9273 74.5645 78.636 74.0418 79.1587C73.5188 79.6817 72.8094 79.9756 72.0698 79.9756C71.3301 79.9756 70.6208 79.6817 70.0977 79.1587C69.5747 78.6357 69.2809 77.9263 69.2809 77.1867C69.2809 69.0357 66.0429 61.2185 60.2793 55.4549C54.5157 49.6913 46.6985 46.4533 38.5476 46.4533C30.3966 46.4533 22.5794 49.6913 16.8158 55.4549C11.0522 61.2185 7.81423 69.0357 7.81423 77.1867C7.81423 77.9263 7.5204 78.6357 6.99739 79.1587C6.47437 79.6817 5.765 79.9756 5.02534 79.9756C4.28568 79.9756 3.57631 79.6817 3.0533 79.1587C2.53047 78.6359 2.23667 77.9269 2.23645 77.1875C2.24334 70.213 4.2587 63.3881 8.0416 57.5286C11.8247 51.6688 17.2154 47.0226 23.5692 44.1455L26.4158 42.8565L24.0532 40.8114C21.7148 38.7873 19.8393 36.2839 18.5538 33.471C17.2684 30.6581 16.6031 27.6016 16.6031 24.5089C16.6031 18.6889 18.9151 13.1072 23.0305 8.99183C27.1459 4.87645 32.7275 2.56445 38.5476 2.56445C44.3676 2.56445 49.9492 4.87645 54.0646 8.99183C58.18 13.1072 60.492 18.6889 60.492 24.5089C60.492 27.6016 59.8268 30.6581 58.5413 33.471C57.2558 36.2839 55.3803 38.7873 53.042 40.8114ZM83.6959 39.08L82.1244 40.8497L84.1314 42.104C90.0742 45.8181 94.9686 50.9902 98.3495 57.1286C101.73 63.2671 103.486 70.1681 103.448 77.176V77.1867C103.448 77.9263 103.155 78.6357 102.632 79.1587C102.108 79.6817 101.399 79.9756 100.659 79.9756C99.9198 79.9756 99.2104 79.6817 98.6874 79.1587C98.166 78.6373 97.8724 77.9307 97.8706 77.1935C97.9224 70.4268 96.0403 63.7859 92.4456 58.0525C88.8586 52.3312 83.7153 47.7512 77.6189 44.8488L77.1235 44.582L75.3342 43.3891L75.3242 43.3825C74.9286 43.1222 74.6057 42.7654 74.3862 42.3457C74.1671 41.9271 74.058 41.4596 74.0691 40.9872C74.0816 40.5101 74.2164 40.0441 74.4606 39.6339C74.7047 39.2237 75.0501 38.8831 75.4635 38.6446L75.4642 38.6442C77.9458 37.2114 80.0078 35.1523 81.4438 32.6726C82.8799 30.193 83.6398 27.3798 83.6476 24.5143V24.5089C83.6476 20.1682 81.9232 16.0053 78.8539 12.9359C75.7845 9.86657 71.6216 8.14223 67.2809 8.14223C66.5412 8.14223 65.8319 7.8484 65.3089 7.32538C64.7858 6.80236 64.492 6.093 64.492 5.35334C64.492 4.61368 64.7858 3.90432 65.3089 3.3813C65.8319 2.85828 66.5412 2.56445 67.2809 2.56445L67.2814 2.56445C71.5115 2.56332 75.6517 3.78478 79.2037 6.08181C82.7557 8.37883 85.5682 11.6535 87.3025 15.5117C89.0368 19.3698 89.6191 23.647 88.9792 27.8284C88.3394 32.0097 86.5046 35.9171 83.6959 39.08ZM29.4547 38.1173C32.1462 39.9157 35.3105 40.8756 38.5476 40.8756C42.8883 40.8756 47.0512 39.1512 50.1205 36.0819C53.1899 33.0125 54.9142 28.8496 54.9142 24.5089C54.9142 21.2719 53.9543 18.1075 52.1559 15.4161C50.3576 12.7246 47.8014 10.6268 44.8108 9.38807C41.8202 8.14932 38.5294 7.8252 35.3546 8.45671C32.1798 9.08822 29.2635 10.647 26.9746 12.9359C24.6857 15.2248 23.1269 18.1411 22.4954 21.3159C21.8639 24.4907 22.188 27.7815 23.4267 30.7721C24.6655 33.7628 26.7632 36.3189 29.4547 38.1173Z" stroke="#3FA9A9" stroke-width="4"/>
</svg>
